<svg xmlns="http://www.w3.org/2000/svg" width="24" height="24" viewBox="0 0 240 240"><path d="M33.841,130.908L77.112,156.087L76.905,156.295L87.272,190.511L87.273,240L54.545,240L54.545,163.636L0,163.636L0,130.909L33.841,130.908ZM240,130.909L240,163.636L183.712,163.636L190.095,130.909L240,130.909ZM87.273,0L87.272,85.085L54.545,101.769L54.545,0L87.273,0Z" fill-rule="nonZero" stroke-width="1" fill="#000000" stroke="#00000000" fill-opacity="0.1"/><path d="M211.373,21.818L174.173,212.564L100.833,169.888L101.431,167.771L211.373,21.818ZM211.373,21.818L77.114,156.087L16.82,121.004L211.373,21.818Z" fill-rule="nonZero" stroke-width="1" fill="#000000" stroke="#00000000"/><path d="M91.285,203.749l-14.378,-47.455l134.465,-134.476l-109.942,145.953z" fill-rule="nonZero" stroke-width="1" fill="#000000" stroke="#00000000" fill-opacity="0.5"/><path d="M91.285,203.749l22.811,-27.48l-13.069,-7.571z" fill-rule="nonZero" stroke-width="1" fill="#000000" stroke="#00000000"/></svg>