<svg xmlns="http://www.w3.org/2000/svg" width="192" height="192" viewBox="0 0 192 192"><path d="M127,68a9,9 0,0 1,-9 9,9 9,0 0,1 -9,-9 9,9 0,0 1,9 -9,9 9,0 0,1 9,9zM83,68a9,9 0,0 1,-9 9,9 9,0 0,1 -9,-9 9,9 0,0 1,9 -9,9 9,0 0,1 9,9z" fill-rule="nonZero" fill="#000"/><path d="m142.1,22 l-18.45,18.5M49.86,22l18.45,18.5" fill-rule="nonZero" stroke-width="12" fill-opacity="0" fill="#000000" stroke="#000"/><path d="M145,82v39a49,49 0,0 1,-49 49,49 49,0 0,1 -49,-49V82a49,49 0,0 1,49 -49,49 49,0 0,1 49,49zM47,91h98" fill-rule="nonZero" stroke-width="12" fill-opacity="0" fill="#000000" stroke="#000"/><path d="m96,109 l19.72,34.02H76.28z" fill-rule="nonZero" stroke-width="12" fill-opacity="0" fill="#000000" stroke="#000" stroke-linejoin="round"/></svg>