<svg xmlns="http://www.w3.org/2000/svg" width="24" height="24" viewBox="0 0 240 240"><path d="M120,120m-85,0a85,85 0,1 1,170 0a85,85 0,1 1,-170 0" fill-rule="evenOdd" stroke-width="10" fill-opacity="0" fill="#000000" stroke="#000000"/><path d="M120,120m-25,0a25,25 0,1 1,50 0a25,25 0,1 1,-50 0" fill-rule="evenOdd" stroke-width="1" fill="#000000" stroke="#00000000"/><path d="M156,113l10,0l-10,15l10,0" fill-rule="evenOdd" stroke-width="10" fill-opacity="0" fill="#000000" stroke="#000000" stroke-linejoin="round"/><path d="M170,69l20,0l-20,30l20,0" fill-rule="evenOdd" stroke-width="10" fill-opacity="0" fill="#000000" stroke="#000000" stroke-linejoin="round"/><path d="M202,12l30,0l-30,45l30,0" fill-rule="evenOdd" stroke-width="10" fill-opacity="0" fill="#000000" stroke="#000000" stroke-linejoin="round"/></svg>