<svg xmlns="http://www.w3.org/2000/svg" width="24" height="24" viewBox="0 0 240 240"><path d="M202,58L193,58C158,58 129,76 129,121C129,166 157,184 193,184L202,184C205,184 207,182 207,179L207,62C206,60 204,58 202,58ZM38,58C35,58 33,60 33,63L33,180C33,182 35,185 38,185L47,185C82,185 111,167 111,122C111,77 82,58 47,58L38,58ZM38,44L202,44C212,44 220,52 220,62L220,179C220,189 212,197 202,197L38,197C28,197 20,189 20,179L20,62C20,52 28,44 38,44Z" fill-rule="nonZero" stroke-width="1" fill="#000000" stroke="#00000000"/></svg>