<svg xmlns="http://www.w3.org/2000/svg" width="192" height="192" viewBox="0 0 192 192"><path d="m154,67 l14.58,30.55c3.53,7.396 0.323,16.25 -7.125,19.67l-82.91,38.06c-7.472,3.43 -16.31,0.135 -19.71,-7.349l-34.89,-76.76c-5.593,-12.3 -3.062,-28.38 16.12,-37.2 19.18,-8.825 33.32,0.744 38.48,11.88l57.46,124.1" fill-rule="nonZero" stroke-width="12" fill-opacity="0" fill="#000000" stroke="#000" stroke-linejoin="round"/><path d="M154,36a14,14 0,0 1,-14 14,14 14,0 0,1 -14,-14 14,14 0,0 1,14 -14,14 14,0 0,1 14,14z" fill-rule="nonZero" stroke-width="12" fill-opacity="0" fill="#000000" stroke="#000"/></svg>