<svg xmlns="http://www.w3.org/2000/svg" width="192" height="192" viewBox="0 0 192 192"><path d="M96,170C136.869,170 170,136.869 170,96C170,55.131 136.869,22 96,22C55.131,22 22,55.131 22,96C22,136.869 55.131,170 96,170Z" fill-rule="nonZero" stroke-width="12" fill-opacity="0" fill="#000000" stroke="#000000" stroke-linejoin="round"/><path d="M80,166L64.844,94.354C61.318,77.686 74.033,62 91.07,62V62C103.371,62 114.093,70.372 117.076,82.305L118,86C124,114 90,100 98,126C106,152 114,164 114,164" fill-rule="nonZero" stroke-width="12" fill-opacity="0" fill="#000000" stroke="#000000" stroke-linejoin="round"/><path d="M90,62C88,54 80,50 72,50" fill-rule="nonZero" stroke-width="12" fill-opacity="0" fill="#000000" stroke="#000000" stroke-linejoin="round"/><path d="M118,100C124,100 132,98 138,94" fill-rule="nonZero" stroke-width="12" fill-opacity="0" fill="#000000" stroke="#000000" stroke-linejoin="round"/><path d="M104,112C110,116 120,118 131,116" fill-rule="nonZero" stroke-width="12" fill-opacity="0" fill="#000000" stroke="#000000" stroke-linejoin="round"/></svg>