<svg xmlns="http://www.w3.org/2000/svg" width="24" height="24" viewBox="0 0 240 240"><path d="M202.8,30L37.2,30C33.217,30 30,33.217 30,37.2L30,202.8C30,206.783 33.217,210 37.2,210L202.8,210C206.783,210 210,206.783 210,202.8L210,37.2C210,33.217 206.783,30 202.8,30ZM182.01,82.537L167.633,82.537C156.36,82.537 154.178,87.893 154.178,95.768L154.178,113.115L181.087,113.115L177.577,140.273L154.178,140.273L154.178,210L126.12,210L126.12,140.295L102.652,140.295L102.652,113.115L126.12,113.115L126.12,93.09C126.12,69.848 140.318,57.18 161.063,57.18C171.008,57.18 179.535,57.923 182.033,58.26L182.033,82.537L182.01,82.537Z" fill-rule="nonZero" stroke-width="1" fill="#000000" stroke="#00000000"/></svg>