<svg xmlns="http://www.w3.org/2000/svg" width="24" height="24" viewBox="0 0 240 240"><path d="M14,173.025L60.155,125.549L60.155,230L21.376,230C17.302,230 14,226.698 14,222.624L14,173.025Z" fill-rule="nonZero" stroke-width="1" fill="#000000" stroke="#00000000" fill-opacity="0.8"/><path d="M14,111.671L112.794,12.181C115.623,9.329 120.214,9.266 123.121,12.038L150.615,38.254L14,175.904L14,111.677L14,111.671Z" fill-rule="nonZero" stroke-width="1" fill="#000000" stroke="#00000000" fill-opacity="0.5"/><path d="M224.461,174.042L178.3,127.411L178.3,230L217.084,230C221.158,230 224.461,226.698 224.461,222.624L224.461,174.042L224.461,174.042Z" fill-rule="nonZero" stroke-width="1" fill="#000000" stroke="#00000000" fill-opacity="0.6"/><path d="M60.155,183.369l118.151,0l0,46.631l-118.151,0z" fill-rule="nonZero" stroke-width="1" fill="#000000" stroke="#00000000" fill-opacity="0.2"/><path d="M225.389,114.931l-75.053,-77.058l-32.461,33.312l106.694,104.053z" fill-rule="nonZero" stroke-width="1" fill="#000000" stroke="#00000000"/></svg>