<svg xmlns="http://www.w3.org/2000/svg" width="24" height="24" viewBox="0 0 240 240"><path d="M81,20L203,20A14,14 0,0 1,217 34L217,130A14,14 0,0 1,203 144L81,144A14,14 0,0 1,67 130L67,34A14,14 0,0 1,81 20z" fill-rule="evenOdd" stroke-width="1" fill="#000000" stroke="#00000000" fill-opacity="0.5"/><path d="M24,77C24,69.268 30.268,63 38,63L159,63C166.732,63 173,69.268 173,77L173,173C173,180.732 166.732,187 159,187L72.779,187C69.681,187 66.67,188.028 64.219,189.922L33.669,213.529C31.047,215.555 27.278,215.072 25.252,212.45C24.44,211.399 24,210.109 24,208.781L24,77L24,77Z" fill-rule="evenOdd" stroke-width="1" fill="#000000" stroke="#00000000" fill-opacity="0.5"/></svg>