<svg xmlns="http://www.w3.org/2000/svg" width="24" height="24" viewBox="0 0 240 240"><path d="M40,30L200,30A10,10 0,0 1,210 40L210,200A10,10 0,0 1,200 210L40,210A10,10 0,0 1,30 200L30,40A10,10 0,0 1,40 30z" fill-rule="evenOdd" stroke-width="1" fill="#000000" stroke="#00000000" fill-opacity="0.1"/><path d="M120,50C138.638,50 154.299,62.748 158.74,80L166,80L166,100L158.74,100.001C154.785,115.365 141.931,127.156 126.001,129.553L126,240L114,240L114,129.553C98.069,127.157 85.215,115.365 81.26,100.001L74,100L74,80L81.26,80C85.701,62.748 101.362,50 120,50Z" fill-rule="evenOdd" stroke-width="1" stroke="#00000000"/><path d="M200,40m-10,0a10,10 0,1 1,20 0a10,10 0,1 1,-20 0" fill-rule="evenOdd" stroke-width="1" fill="#000000" stroke="#00000000"/></svg>