<svg xmlns="http://www.w3.org/2000/svg" width="24" height="24" viewBox="0 0 240 240"><path d="M220,119.965L120,35L20,119.965L37.832,120.315L37.832,204.231L202.168,204.231L202.168,120.315L220,119.965ZM55.315,187.448L55.315,112.972L120,57.727L184.685,112.972L184.685,187.448L55.315,187.448Z" fill-rule="nonZero" stroke-width="1" fill="#231815" stroke="#00000000"/><path d="M191.678,78.357L153.217,39.895L191.678,39.895L191.678,78.357ZM147.972,141.294L147.972,127.308L129.79,127.308L146.923,110.524L136.783,100.734L120,117.517L103.217,100.734L93.077,110.524L110.21,127.308L92.028,127.308L92.028,141.294L113.007,141.294L113.007,148.287L92.028,148.287L92.028,162.273L113.007,162.273L113.007,176.259L126.993,176.259L126.993,162.273L147.972,162.273L147.972,148.287L126.993,148.287L126.993,141.294L147.972,141.294Z" fill-rule="nonZero" stroke-width="1" fill="#BDBCBC" stroke="#00000000"/></svg>