<svg xmlns="http://www.w3.org/2000/svg" width="192" height="192" viewBox="0 0 192 192"><defs><clipPath id="a"><path fill="#fff" d="M0,0h192v192h-192z"/></clipPath></defs><g transform="translate(0,0) scale(1,1)" clip-path="url(#a)"><path d="M28.45,135a58,78 60,1 0,135.1 -78a58,78 60,1 0,-135.1 78z" fill-rule="nonZero" stroke-width="12" fill-opacity="0" fill="#000000" stroke="#000000"/><path d="M65,96C65,77.143 74.216,66 96,66" fill-rule="nonZero" stroke-width="12" fill-opacity="0" fill="#000000" stroke="#000000" stroke-linejoin="round"/><path d="M65,96C65,114.857 74.216,126 96,126" fill-rule="nonZero" stroke-width="12" fill-opacity="0" fill="#000000" stroke="#000000" stroke-linejoin="round"/><path d="M96,126C110.85,126 120.204,121.718 125,114" fill-rule="nonZero" stroke-width="12" fill-opacity="0" fill="#000000" stroke="#000000" stroke-linejoin="round"/><path d="M95.761,66C117.713,66 127,77.143 127,96H66" fill-rule="nonZero" stroke-width="12" fill-opacity="0" fill="#000000" stroke="#000000" stroke-linejoin="round"/></g></svg>