<svg xmlns="http://www.w3.org/2000/svg" width="24" height="24" viewBox="0 0 240 240"><path d="M50,42L130,42A10,10 0,0 1,140 52L140,172A10,10 0,0 1,130 182L50,182A10,10 0,0 1,40 172L40,52A10,10 0,0 1,50 42z" fill-rule="nonZero" fill="#000000" fill-opacity="0.5"/><path d="M117,157L177,157A10,10 0,0 1,187 167L187,197A10,10 0,0 1,177 207L117,207A10,10 0,0 1,107 197L107,167A10,10 0,0 1,117 157z" fill-rule="nonZero" fill="#000000"/><path d="M156,24L196,24A10,10 0,0 1,206 34L206,94A10,10 0,0 1,196 104L156,104A10,10 0,0 1,146 94L146,34A10,10 0,0 1,156 24z" fill-rule="nonZero" fill="#000000"/></svg>