<svg xmlns="http://www.w3.org/2000/svg" width="24" height="24" viewBox="0 0 240 240"><path d="M64.846,85.444L135.556,156.154A8,8 47.597,0 1,135.556 167.468L106.565,196.459A8,8 0,0 1,95.251 196.459L24.541,125.749A8,8 55.901,0 1,24.541 114.435L53.532,85.444A8,8 0,0 1,64.846 85.444z" fill-rule="evenOdd" stroke-width="1" fill="#000000" stroke="#00000000" fill-opacity="0.5"/><path d="M187.175,47.967L215.459,76.251A8,8 0,0 1,215.459 87.565L106.565,196.459A8,8 0,0 1,95.251 196.459L66.967,168.175A8,8 0,0 1,66.967 156.861L175.861,47.967A8,8 0,0 1,187.175 47.967z" fill-rule="evenOdd" stroke-width="1" fill="#000000" stroke="#00000000"/></svg>