<svg xmlns="http://www.w3.org/2000/svg" width="24" height="24" viewBox="0 0 240 240"><path d="M71.474,114.746C72.052,142.332 96.417,162.787 121.825,161.789C147.43,160.784 169.607,138.758 168.679,111.499C167.773,84.887 145.483,63.861 118.434,64.56C91.797,65.249 70.813,87.675 71.474,114.746M213.091,113.2C213.063,157.256 183.121,194.619 140.009,204.252C138.123,204.674 136.759,205.496 135.525,206.878C132.592,210.162 129.658,213.451 126.597,216.616C122.474,220.879 117.174,221.343 113.73,216.696C107.152,207.824 98.206,204.012 88.047,200.558C51.757,188.223 27.222,152.626 27,114.222C26.884,93.549 32.876,75.036 44.817,58.222C80.302,8.255 159.018,5.406 197.104,60.797C207.937,76.552 213.237,94.065 213.091,113.2" fill-rule="evenOdd" stroke-width="1" fill="#000000" stroke="#00000000"/></svg>