<svg xmlns="http://www.w3.org/2000/svg" width="24" height="24" viewBox="0 0 24 24"><path d="M13.7018,20.7384 L6.3439,16.1335A0.7008,0.7008 0,0 1,6.0035 15.5528L6.0035,5.3718a0.6807,0.6807 0,0 1,0.6907 -0.6807,0.6507 0.6507,0 0,1 0.3604,0.1001l7.378,4.635a0.7508,0.7508 0,0 1,0.3203 0.5806l0,10.1409a0.6907,0.6907 0,0 1,-0.6807 0.7008,0.7408 0.7408,0 0,1 -0.3704,-0.1101z" fill-rule="nonZero" stroke-width="2.3" fill-opacity="0" fill="#000000" stroke="#000"/><path d="M16.9553,19.2368 L9.5774,14.6218A0.7008,0.7008 0,0 1,9.257 14.0412L9.257,3.8202a0.6907,0.6907 45,0 1,1.0611 -0.5806l7.3579,4.635a0.6707,0.6707 0,0 1,0.3203 0.5806l0,10.191a0.6907,0.6907 0,0 1,-0.6907 0.6907,0.7108 0.7108,0 0,1 -0.3504,-0.1001z" fill-rule="nonZero" stroke-width="2.3" fill-opacity="0" fill="#000000" stroke="#000"/></svg>