<svg xmlns="http://www.w3.org/2000/svg" width="192" height="192" viewBox="0 0 192 192"><path d="M50,94L142,94A4,4 0,0 1,146 98L146,166A4,4 0,0 1,142 170L50,170A4,4 0,0 1,46 166L46,98A4,4 0,0 1,50 94z" fill-rule="nonZero" stroke-width="12" fill-opacity="0" fill="#000000" stroke="#000000"/><path d="M46,94L87.515,135.515C92.201,140.201 99.799,140.201 104.485,135.515L146,94" fill-rule="nonZero" stroke-width="12" fill-opacity="0" fill="#000000" stroke="#000000"/><path d="M46,100V72C46,44.386 68.386,22 96,22V22C123.614,22 146,44.386 146,72V100" fill-rule="nonZero" stroke-width="12" fill-opacity="0" fill="#000000" stroke="#000000"/></svg>