<svg xmlns="http://www.w3.org/2000/svg" width="24" height="24" viewBox="0 0 24 24"><path d="m12.5,2v3.252c0,0.414 0.336,0.75 0.75,0.75 0.414,0 0.75,-0.336 0.75,-0.75V2h1V6.251c0,0.414 0.336,0.75 0.75,0.75 0.414,0 0.75,-0.336 0.75,-0.75V2h1.75c0.414,0 0.75,0.336 0.75,0.75V11H5V2.75c0,-0.414 0.336,-0.75 0.75,-0.75z" fill-rule="nonZero" fill="#000000"/><path d="m5,12.5v1.752c0,1.243 1.007,2.25 2.25,2.25h2.75v3.498C10,21.105 10.895,22 12,22c1.105,0 2,-0.895 2,-2v-3.498h2.75c1.243,0 2.25,-1.007 2.25,-2.25v-1.752z" fill-rule="nonZero" fill="#000000"/></svg>