<svg xmlns="http://www.w3.org/2000/svg" width="24" height="24" viewBox="0 0 240 240"><path d="M162.868,27C190.477,27 212.858,49.382 212.858,76.991C212.858,104.6 190.477,126.981 162.868,126.981C135.259,126.981 112.877,104.6 112.877,76.991C112.877,49.382 135.259,27 162.868,27L162.868,27Z" fill-rule="nonZero" stroke-width="1" fill="#000000" stroke="#00000000" fill-opacity="0.5"/><path d="M105.736,62.708C134.528,62.708 158.823,84.132 162.425,112.698L170.009,112.698C197.618,112.698 220,135.08 220,162.689C220,190.298 197.618,212.68 170.009,212.68L70.028,212.68C46.626,212.695 26.346,196.474 21.219,173.641C16.093,150.808 27.492,127.474 48.653,117.483C49.917,86.873 75.1,62.708 105.736,62.708Z" fill-rule="nonZero" stroke-width="1" fill="#000000" stroke="#00000000"/></svg>