<svg xmlns="http://www.w3.org/2000/svg" width="24" height="24" viewBox="0 0 240 240"><path d="M101.186,106.691L199.586,106.691C205.929,106.691 211.07,111.833 211.07,118.175L211.07,208.516C211.07,214.858 205.929,220 199.586,220L89.702,220L89.702,118.175C89.702,111.833 94.843,106.691 101.186,106.691Z" fill-rule="nonZero" stroke-width="1" fill="#000000" stroke="#00000000" fill-opacity="0.8"/><path d="M89.702,220C126.295,201.625 151.404,163.742 151.404,120.001C151.404,76.261 126.304,38.375 89.702,20L89.702,220Z" fill-rule="nonZero" stroke-width="1" fill="#000000" stroke="#00000000"/><path d="M57.859,65.615L57.859,43.919C66.962,34.111 77.746,26.01 89.702,20L89.702,220C53.111,201.616 28,163.742 28,120.001C27.971,100.966 32.822,82.241 42.091,65.615L57.859,65.615Z" fill-rule="nonZero" stroke-width="1" fill="#000000" stroke="#00000000" fill-opacity="0.5"/></svg>