<svg xmlns="http://www.w3.org/2000/svg" width="24" height="24" viewBox="0 0 240 240"><path d="M20,20h200v200h-200z" fill-rule="nonZero" stroke-width="1" fill="#000000" stroke="#00000000" fill-opacity="0"/><path d="M120,64.683L140.625,39.467C140.625,39.467 176,40.217 211.217,56.583C202.2,70.217 184.292,76.9 184.292,76.9C183.075,64.908 174.675,61.983 148.008,61.983L120,220L91.825,61.95C65.325,61.95 56.925,64.9 55.7,76.883C55.7,76.883 37.817,70.258 28.792,56.633C64,40.258 99.375,39.5 99.375,39.5L120,64.683L119.967,64.7L120,64.7L120,64.683ZM120,32.192C148.458,31.942 181.05,36.592 214.4,51.192C218.858,43.125 220,39.567 220,39.567C183.542,25.1 149.4,20.125 120,20C90.6,20.125 56.458,25.083 20,39.575C20,39.575 21.625,43.95 25.6,51.208C58.95,36.575 91.542,31.958 120,32.167L120,32.192Z" fill-rule="nonZero" stroke-width="1" fill="#000000" stroke="#00000000"/></svg>