<svg xmlns="http://www.w3.org/2000/svg" width="24" height="24" viewBox="0 0 240 240"><path d="M80,20L160,20A60,60 0,0 1,220 80L220,160A60,60 0,0 1,160 220L80,220A60,60 0,0 1,20 160L20,80A60,60 0,0 1,80 20z" fill-rule="evenOdd" stroke-width="1" fill="#000000" stroke="#00000000" fill-opacity="0.1"/><path d="M220,20m-100,0a100,100 0,1 1,200 0a100,100 0,1 1,-200 0" fill-rule="evenOdd" stroke-width="1" fill="#000000" stroke="#00000000" fill-opacity="0.2"/><path d="M220,20m-150,0a150,150 0,1 1,300 0a150,150 0,1 1,-300 0" fill-rule="evenOdd" stroke-width="1" fill="#000000" stroke="#00000000" fill-opacity="0.2"/><path d="M220,20m-200,0a200,200 0,1 1,400 0a200,200 0,1 1,-400 0" fill-rule="evenOdd" stroke-width="1" fill="#000000" stroke="#00000000" fill-opacity="0.2"/><path d="M85,155m-35,0a35,35 0,1 1,70 0a35,35 0,1 1,-70 0" fill-rule="evenOdd" stroke-width="1" fill="#000000" stroke="#00000000" fill-opacity="0.5"/><path d="M135,105m-15,0a15,15 0,1 1,30 0a15,15 0,1 1,-30 0" fill-rule="evenOdd" stroke-width="1" fill="#000000" stroke="#00000000" fill-opacity="0.5"/></svg>