<svg xmlns="http://www.w3.org/2000/svg" width="24" height="24" viewBox="0 0 240 240"><path d="M120,30C169.706,30 210,70.294 210,120C210,169.706 169.706,210 120,210C70.294,210 30,169.706 30,120C30,70.294 70.294,30 120,30ZM120,40L120,200L121.323,199.989C164.896,199.283 200,163.741 200,120C200,75.817 164.183,40 120,40L120,40Z" fill-rule="evenOdd" stroke-width="1" fill="#000000" stroke="#00000000"/><path d="M120,38h15v165h-15z" fill-rule="evenOdd" stroke-width="1" fill="#000000" stroke="#00000000"/><path d="M138,37h10v165h-10z" fill-rule="evenOdd" stroke-width="1" fill="#000000" stroke="#00000000"/><path d="M153,42h8v154h-8z" fill-rule="evenOdd" stroke-width="1" fill="#000000" stroke="#00000000"/><path d="M168,54h5v131h-5z" fill-rule="evenOdd" stroke-width="1" fill="#000000" stroke="#00000000"/><path d="M182,68h3v104h-3z" fill-rule="evenOdd" stroke-width="1" fill="#000000" stroke="#00000000"/></svg>